<svg width="29" height="28" viewBox="0 0 29 28" fill="none" xmlns="http://www.w3.org/2000/svg">
<path d="M5.83222 12.1178C8.15222 16.52 11.89 20.1133 16.4494 22.3689L19.9939 18.9467C20.4289 18.5267 21.0733 18.3867 21.6372 18.5733C23.4417 19.1489 25.3911 19.46 27.3889 19.46C28.275 19.46 29 20.16 29 21.0156V26.4444C29 27.3 28.275 28 27.3889 28C12.2606 28 0 16.1622 0 1.55556C0 0.7 0.725 0 1.61111 0H7.25C8.13611 0 8.86111 0.7 8.86111 1.55556C8.86111 3.5 9.18333 5.36667 9.77944 7.10889C9.95667 7.65333 9.82778 8.26 9.37667 8.69556L5.83222 12.1178Z" fill='#5396e4'/>
</svg>
